# xmcd
#
# Track frame offsets:
#	150
#	15778
#	33145
#	45491
#	60756
#	71838
#	91912
#	105299
#	118145
#	135574
#	148564
#	158022
#	173384
#
# Disc length: 2571 seconds
#
# Revision: 1
# Processed by: cddbd v1.4PL0 Copyright (c) Steve Scherf et al.
# Submitted via: audiograbber 1.80.04
#
DISCID=8e0a090d
DTITLE=Larry Cordle and Lonesome Standard Time - Murder On Music Row
DYEAR=1900
DGENRE=Bluegrass
TTITLE0=I Know How It Feels
TTITLE1=Black Diamond Strings
TTITLE2=I'm Not The First
TTITLE3=When It's All Said And Done
TTITLE4=Black Jack
TTITLE5=Jesus And Bartenders
TTITLE6=Hard Times
TTITLE7=I Wonder Where You Are Tonight
TTITLE8=Buck's Run
TTITLE9=Long Enough To Make Me Blue
TTITLE10=Old Kentucky Miners
TTITLE11=Deep Mine Blues
TTITLE12=Murder On Music Row
EXTD=
EXTT0=
EXTT1=
EXTT2=
EXTT3=
EXTT4=
EXTT5=
EXTT6=
EXTT7=
EXTT8=
EXTT9=
EXTT10=
EXTT11=
EXTT12=
PLAYORDER=
